# xmcd
#
# Track frame offsets:
#	150
#	15881
#	35640
#	51233
#	68954
#	83760
#	104311
#	119836
#	140400
#	154649
#	172243
#	188308
#
# Disc length: 2721 seconds
#
# Revision: 0
# Processed by: cddbd v1.5.2PL0 Copyright (c) Steve Scherf et al.
# Submitted via: dBpowerAMP V4.0
#
DISCID=9c0a9f0c
DTITLE=Oliver - When I´m dreaming
DYEAR=2008
DGENRE=Country
TTITLE0=The test of life
TTITLE1=When I´m dreaming
TTITLE2=Gotta go to Nashville
TTITLE3=My horse and my saddle and I
TTITLE4=Let me in
TTITLE5=Baby just talk
TTITLE6=Friday night
TTITLE7=Friends stick together
TTITLE8=Together
TTITLE9=Strong love
TTITLE10=Guess I´ve fallen in love
TTITLE11=Promises to break
EXTD=
EXTT0=
EXTT1=
EXTT2=
EXTT3=
EXTT4=
EXTT5=
EXTT6=
EXTT7=
EXTT8=
EXTT9=
EXTT10=
EXTT11=
PLAYORDER=
